<svg xmlns="http://www.w3.org/2000/svg" x="0px" y="0px" width="100" height="100" viewBox="0 0 72 72">
<path d="M 36 10 C 28.28 10 22 16.28 22 24 L 22 28.587891 C 19.069798 29.775473 17 32.643974 17 36 L 17 52 C 17 56.418 20.582 60 25 60 L 47 60 C 51.418 60 55 56.418 55 52 L 55 36 C 55 32.643974 52.930202 29.775473 50 28.587891 L 50 24 C 50 16.28 43.72 10 36 10 z M 36 18 C 39.309 18 42 20.691 42 24 L 42 28 L 30 28 L 30 24 C 30 20.691 32.691 18 36 18 z M 27 41 C 28.657 41 30 42.343 30 44 C 30 45.657 28.657 47 27 47 C 25.343 47 24 45.657 24 44 C 24 42.343 25.343 41 27 41 z M 36 41 C 37.657 41 39 42.343 39 44 C 39 45.657 37.657 47 36 47 C 34.343 47 33 45.657 33 44 C 33 42.343 34.343 41 36 41 z M 45 41 C 46.657 41 48 42.343 48 44 C 48 45.657 46.657 47 45 47 C 43.343 47 42 45.657 42 44 C 42 42.343 43.343 41 45 41 z"></path>
</svg>